<?xml version="1.0" encoding="UTF-8" standalone="no"?>
<svg xmlns="http://www.w3.org/2000/svg"
     xmlns:svg="http://www.w3.org/2000/svg"
     version="1.1"
     width="1.66667in" height="1.875in"
     viewBox="0 0 120 135">
  <path id="path1"
        fill="none" stroke="#0066B3" stroke-width="3.25" stroke-linejoin="round" stroke-linecap="round"
        d="M 57.00,4.00
           C 57.00,4.00 58.00,4.00 58.00,4.00
             58.00,4.00 58.00,6.00 58.00,6.00
             61.54,3.90 63.73,4.63 66.00,8.00
             70.69,8.56 74.62,11.69 78.72,13.96
             78.72,13.96 101.34,26.96 101.34,26.96
             101.34,26.96 112.41,33.84 112.41,33.84
             114.20,35.85 113.49,38.54 113.80,41.00
             113.80,41.00 113.80,91.00 113.80,91.00
             113.94,100.33 111.94,98.46 106.00,104.00
             106.00,104.00 104.00,103.00 104.00,103.00
             100.94,107.84 94.08,109.94 89.20,112.70
             89.20,112.70 59.00,130.00 59.00,130.00
             59.00,130.00 38.00,115.00 38.00,115.00
             31.62,115.00 21.11,106.98 15.20,103.84
             12.57,102.45 7.97,100.60 6.27,98.19
             4.80,96.10 5.01,93.43 5.00,91.00
             5.00,91.00 5.00,63.00 5.00,63.00
             5.00,63.00 5.00,42.00 5.00,42.00
             5.06,38.61 5.39,34.96 8.61,32.95
             10.54,31.75 13.77,32.01 16.00,32.00
             17.05,25.78 19.58,27.30 24.25,24.24
             24.25,24.24 50.00,8.00 50.00,8.00
             50.00,8.00 54.00,6.00 54.00,6.00
             54.00,6.00 57.00,7.00 57.00,7.00
             57.00,7.00 56.00,6.00 56.00,6.00
             56.00,6.00 57.00,4.00 57.00,4.00 Z
           M 43.00,14.00
           C 43.00,14.00 42.00,14.00 42.00,14.00
             42.00,14.00 43.00,15.00 43.00,15.00
             43.00,15.00 43.00,14.00 43.00,14.00 Z
           M 106.00,44.00
           C 106.00,44.00 85.00,44.00 85.00,44.00
             82.79,44.00 79.29,44.22 77.42,42.98
             75.20,41.51 74.81,38.63 73.16,36.00
             71.36,33.13 67.91,29.75 65.00,28.00
             55.42,22.25 47.63,27.12 42.00,28.00
             39.33,31.70 37.19,33.54 35.35,38.00
             33.97,41.37 34.00,43.45 34.00,47.00
             34.01,56.67 36.90,59.27 44.00,65.00
             44.00,65.00 41.00,66.00 41.00,66.00
             41.00,66.00 42.00,64.00 42.00,64.00
             37.98,65.87 33.43,69.74 32.00,74.00
             28.54,72.18 24.98,70.68 22.00,74.00
             22.00,74.00 19.00,73.00 19.00,73.00
             14.65,78.94 10.59,88.97 17.79,94.75
             21.21,97.51 26.79,97.98 31.00,98.00
             31.00,98.00 76.00,98.00 76.00,98.00
             82.69,97.90 85.17,97.06 86.00,90.00
             86.00,90.00 106.00,90.00 106.00,90.00
             106.00,90.00 106.00,44.00 106.00,44.00 Z
           M 14.00,30.00
           C 14.00,30.00 15.00,30.00 15.00,30.00
             15.00,30.00 14.00,31.00 14.00,31.00
             14.00,31.00 14.00,30.00 14.00,30.00 Z
           M 50.44,30.69
           C 71.15,25.56 77.26,54.32 60.91,61.01
             58.57,61.97 55.51,62.11 53.00,61.95
             41.44,61.20 35.79,49.36 40.34,39.31
             42.17,35.26 46.51,32.40 50.44,30.69 Z
           M 7.00,40.00
           C 5.75,43.14 5.75,44.86 7.00,48.00
             7.00,48.00 7.00,40.00 7.00,40.00 Z
           M 76.00,52.00
           C 76.00,52.00 77.59,49.59 77.59,49.59
             77.59,49.59 84.00,49.00 84.00,49.00
             84.00,49.00 100.00,50.00 100.00,50.00
             92.05,50.00 83.45,48.85 76.00,52.00 Z
           M 100.00,51.00
           C 100.00,51.00 101.00,51.00 101.00,51.00
             101.00,51.00 100.00,52.00 100.00,52.00
             100.00,52.00 100.00,51.00 100.00,51.00 Z
           M 83.00,56.00
           C 83.00,56.00 96.00,57.00 96.00,57.00
             96.00,57.00 83.00,56.00 83.00,56.00 Z
           M 71.00,59.00
           C 72.31,62.30 72.31,64.70 71.00,68.00
             71.00,68.00 70.00,64.00 70.00,64.00
             70.00,64.00 66.00,65.00 66.00,65.00
             66.00,65.00 71.00,59.00 71.00,59.00 Z
           M 76.00,60.00
           C 78.00,62.58 77.68,63.30 76.00,66.00
             76.00,66.00 76.00,60.00 76.00,60.00 Z
           M 100.04,60.00
           C 100.04,60.00 100.04,78.00 100.04,78.00
             100.04,78.00 99.22,85.01 99.22,85.01
             99.22,85.01 84.00,86.00 84.00,86.00
             84.00,86.00 82.00,80.00 82.00,80.00
             82.00,80.00 86.00,73.00 86.00,73.00
             85.97,74.58 85.67,77.04 86.91,78.28
             88.23,79.61 96.69,79.41 97.74,77.63
             98.69,75.90 97.85,72.08 97.74,70.09
             97.62,66.24 98.24,63.38 100.04,60.00 Z
           M 84.00,64.00
           C 84.00,64.00 86.00,64.00 86.00,64.00
             86.00,64.00 87.00,70.00 87.00,70.00
             87.00,70.00 82.00,70.00 82.00,70.00
             82.00,70.00 84.00,64.00 84.00,64.00 Z
           M 47.00,68.00
           C 47.00,68.00 52.00,69.00 52.00,69.00
             52.00,69.00 49.00,76.00 49.00,76.00
             49.00,76.00 46.00,69.00 46.00,69.00
             46.00,69.00 47.00,68.00 47.00,68.00 Z
           M 59.00,68.00
           C 59.00,68.00 63.00,68.00 63.00,68.00
             63.70,72.12 62.95,72.87 59.00,74.00
             59.00,74.00 59.00,68.00 59.00,68.00 Z
           M 90.00,68.00
           C 90.00,68.00 94.00,68.00 94.00,68.00
             94.00,68.00 94.00,70.00 94.00,70.00
             94.00,70.00 90.00,70.00 90.00,70.00
             90.00,70.00 90.00,68.00 90.00,68.00 Z
           M 42.81,92.00
           C 43.01,90.27 43.30,86.13 42.81,84.72
             41.63,82.71 32.88,78.72 38.33,73.54
             39.42,72.50 40.19,72.42 41.00,72.00
             41.00,72.00 51.09,85.45 51.09,85.45
             52.66,87.10 54.37,88.24 56.68,87.21
             59.26,86.05 65.11,75.81 71.00,72.00
             75.64,78.25 79.16,81.89 80.00,90.00
             80.00,90.00 72.00,92.00 72.00,92.00
             72.00,92.00 72.00,82.00 72.00,82.00
             72.00,82.00 67.42,84.57 67.42,84.57
             67.42,84.57 64.69,91.40 64.69,91.40
             64.69,91.40 42.81,92.00 42.81,92.00 Z
           M 90.00,74.00
           C 90.00,74.00 94.00,75.00 94.00,75.00
             94.00,75.00 90.00,74.00 90.00,74.00 Z
           M 22.00,78.00
           C 22.00,78.00 24.00,78.00 24.00,78.00
             21.68,84.49 22.24,82.87 25.00,89.00
             25.00,89.00 21.00,90.00 21.00,90.00
             17.18,83.99 19.01,83.77 22.00,78.00 Z
           M 26.00,83.00
           C 31.54,80.88 34.07,81.52 33.00,88.00
             33.00,88.00 30.00,88.00 30.00,88.00
             30.00,88.00 26.00,83.00 26.00,83.00 Z
           M 54.00,81.00
           C 54.00,81.00 55.00,81.00 55.00,81.00
             55.00,81.00 54.00,82.00 54.00,82.00
             54.00,82.00 54.00,81.00 54.00,81.00 Z">
        <title>Seleção</title>
  </path>
</svg>
