<svg version="1.1" id="Layer_1" xmlns="http://www.w3.org/2000/svg" xmlns:xlink="http://www.w3.org/1999/xlink" x="0px" y="0px"
	 width="100%" viewBox="0 0 500 500" enable-background="new 0 0 500 500" xml:space="preserve">

<path fill="#fff159" opacity="1.000000" stroke="none" 
	d="
M341.468658,501.000000 
	C340.183441,499.330566 339.786407,498.863403 337.801331,498.407074 
	C326.711487,495.857697 316.782990,490.915710 307.602539,484.252045 
	C287.112549,469.379456 274.495514,449.743988 269.881470,424.676910 
	C266.132019,404.307098 268.892548,384.950958 277.920685,366.677094 
	C290.893677,340.418365 312.164612,323.813263 340.601868,317.135223 
	C362.114502,312.083313 383.541473,314.028839 403.165863,324.236511 
	C429.726013,338.051788 446.972229,359.586151 453.118469,389.564514 
	C457.430267,410.595215 455.001923,430.774933 445.522522,449.640198 
	C432.288239,475.978149 411.125916,492.964691 381.860992,499.120178 
	C381.304169,499.237305 380.867737,499.926971 380.687561,500.674744 
	C367.979095,501.000000 354.958221,501.000000 341.468658,501.000000 
z"/>
<path fill="#DEB62A" opacity="1.000000" stroke="none" 
	d="
M268.703430,41.876240 
	C277.315430,47.332382 277.576080,59.335606 274.755615,67.438179 
	C272.240509,74.663635 263.489746,79.996956 254.942230,79.998192 
	C223.503845,80.002731 192.065445,80.008598 160.627060,79.994949 
	C150.645767,79.990616 140.950211,71.450089 140.004593,61.891975 
	C138.729599,49.004673 144.940887,39.649467 156.101990,36.911118 
	C160.539688,35.822342 164.974136,35.671074 169.331635,36.103901 
	C178.785400,37.042934 182.523621,31.351204 183.095322,22.410599 
	C186.250641,18.785200 189.031982,15.452824 187.787537,10.193365 
	C188.437668,9.294505 188.921478,8.699369 189.678314,7.998338 
	C194.811829,7.077565 199.238586,5.412053 202.756744,1.243699 
	C206.361282,1.000000 209.722580,1.000000 213.541931,1.000000 
	C217.545563,3.695866 221.164963,6.269469 225.708557,7.877680 
	C226.326279,8.058775 226.608582,8.230321 226.966644,8.643669 
	C228.788528,12.751468 231.279739,16.269331 232.631134,20.707180 
	C232.873428,21.171679 232.913498,21.343218 232.893463,21.772068 
	C232.592789,23.273716 232.986725,24.402332 233.651184,25.757481 
	C233.893997,27.054419 233.954636,28.108706 234.061569,29.557306 
	C233.879700,32.085064 234.843842,33.472397 237.134293,34.200668 
	C237.475220,34.158226 237.751022,34.237614 237.794083,34.374493 
	C238.733704,37.896801 240.560715,38.764210 243.753067,36.386353 
	C248.027908,36.119007 252.055420,36.071346 256.541382,36.095177 
	C260.071442,39.494080 264.590088,39.936024 268.703430,41.876240 
z"/>
<path fill="#DEB62A" opacity="1.000000" stroke="none" 
	d="
M202.583344,1.000000 
	C202.552124,7.157704 197.938141,9.884276 190.270752,8.112941 
	C191.744492,4.239237 196.401245,4.490275 198.337891,1.246698 
	C199.388885,1.000000 200.777786,1.000000 202.583344,1.000000 
z"/>
<path fill="#DEB62A" opacity="1.000000" stroke="none" 
	d="
M225.905823,7.573469 
	C221.741806,9.162277 216.335617,6.351325 214.074631,1.351279 
	C215.388885,1.000000 216.777786,1.000000 218.583344,1.000000 
	C219.717224,4.750106 224.152512,4.480429 225.905823,7.573469 
z"/>
<path fill="#DEB62A" opacity="1.000000" stroke="none" 
	d="
M290.766663,51.423248 
	C307.691040,51.118977 324.381622,51.071285 341.536011,51.095131 
	C343.558380,52.665615 345.167236,53.908722 347.443787,54.365849 
	C352.743500,55.430042 356.843201,59.171108 362.121338,61.146072 
	C362.481873,61.160542 362.760254,61.247688 362.801453,61.387592 
	C364.035858,66.113808 367.334167,69.787575 368.631500,74.708199 
	C368.888885,76.826157 368.992767,78.652130 368.992981,80.478119 
	C369.001251,150.007187 369.001465,219.536240 368.992065,289.065308 
	C368.991821,290.889740 368.873657,292.714172 368.405212,294.685974 
	C367.313507,294.226196 366.504791,293.998474 365.279480,294.086853 
	C355.562592,293.924622 346.221741,295.098938 337.205811,297.299255 
	C331.986633,298.572937 333.003967,296.075867 333.003601,293.327759 
	C332.998322,254.685486 332.997925,216.043228 333.001068,177.400955 
	C333.002228,163.243301 333.015747,149.085632 333.095123,134.464172 
	C334.182281,132.857971 335.102539,131.705734 333.251282,130.204391 
	C298.124725,130.073669 263.295441,130.018387 228.466171,130.004547 
	C182.136032,129.986130 135.805542,130.081009 89.476303,129.877243 
	C84.735802,129.856415 83.901237,131.293671 83.907104,135.653366 
	C84.030106,226.980225 84.031723,318.307343 83.900398,409.634186 
	C83.894241,413.912445 84.747070,415.136261 89.263786,415.119598 
	C140.426224,414.931000 191.589966,415.083160 242.752197,414.869110 
	C247.772598,414.848114 249.143921,416.891724 248.964813,421.064514 
	C248.757370,425.897400 251.113129,430.313446 251.061584,435.527344 
	C251.206436,440.959778 254.102493,445.310425 254.234604,450.544373 
	C242.695801,450.888885 231.392075,450.989807 220.088333,450.992188 
	C170.701416,451.002563 121.314499,450.984283 71.463753,450.904877 
	C67.898880,449.525604 64.918236,447.918518 61.295105,447.089783 
	C52.123775,441.921570 47.087223,434.199310 47.065693,423.974121 
	C46.934254,361.556000 46.996964,299.137421 47.000927,236.718994 
	C47.004307,183.455322 47.015728,130.191650 47.095127,76.464172 
	C50.951988,71.900322 53.459587,67.320160 52.787796,61.186275 
	C54.419289,59.309952 55.884705,57.730259 57.650742,56.021500 
	C61.270988,55.396465 64.399757,54.519485 66.754410,51.386372 
	C85.973457,51.111660 104.946793,51.091190 123.919327,50.957779 
	C126.281593,50.941166 127.157471,51.618919 127.044220,54.043179 
	C126.873528,57.697098 127.009583,61.365353 127.061584,65.489594 
	C127.580757,71.544762 129.313354,76.548676 134.138123,80.211014 
	C134.474854,80.158089 134.757309,80.245392 134.800156,80.386856 
	C135.155167,84.244095 137.429825,86.210144 141.138290,87.182251 
	C141.481705,87.160477 141.753937,87.239914 141.795486,87.375488 
	C144.262421,91.925880 153.124710,95.389320 157.741241,93.395966 
	C191.357651,93.118980 224.714935,93.071289 258.536011,93.095131 
	C264.646881,96.072357 273.416656,92.442902 277.766541,85.183289 
	C277.974884,84.542107 278.131897,84.275871 278.655518,84.023911 
	C286.113647,80.607483 292.253113,70.242073 291.118591,62.398602 
	C290.598145,58.800594 291.041534,55.229805 290.766663,51.423248 
z"/>
<path fill="#DEB62A" opacity="1.000000" stroke="none" 
	d="
M176.000031,172.318466 
	C176.306808,166.870117 178.210052,165.032776 183.488907,165.017517 
	C199.814789,164.970322 216.140900,165.000046 232.466919,165.000015 
	C253.790695,164.999954 275.114471,164.993439 296.438263,165.003891 
	C303.108673,165.007156 304.964478,166.856232 304.999969,173.433868 
	C305.071716,186.735413 304.809875,187.000000 291.575012,187.000000 
	C256.757263,187.000000 221.939377,186.941086 187.121933,187.041382 
	C178.410812,187.066467 175.063705,186.616531 175.988724,175.769577 
	C176.073349,174.777222 176.000000,173.771393 176.000031,172.318466 
z"/>
<path fill="#DEB62A" opacity="1.000000" stroke="none" 
	d="
M186.160202,251.000000 
	C177.690613,251.784698 175.670120,249.086899 175.902725,241.486511 
	C176.268280,229.541779 176.532272,229.000000 188.476410,229.000000 
	C223.919281,229.000000 259.362152,228.998581 294.805023,229.001099 
	C302.628113,229.001663 304.999237,231.382202 304.999969,239.208221 
	C305.000122,240.705811 305.033569,242.204285 304.993561,243.700806 
	C304.850525,249.046783 302.847748,250.995895 297.459106,250.996780 
	C260.518646,251.002914 223.578171,251.000000 186.160202,251.000000 
z"/>
<path fill="#DEB62A" opacity="1.000000" stroke="none" 
	d="
M261.468048,308.997803 
	C235.893265,308.999664 210.768265,309.004974 185.643280,308.996735 
	C178.546188,308.994415 176.162491,306.396606 175.961243,299.240387 
	C175.680878,289.271271 174.827240,285.819275 189.392349,285.945801 
	C212.685287,286.148254 235.981247,285.995300 259.275940,286.002777 
	C266.471741,286.005096 268.997589,288.534637 269.000000,295.679871 
	C269.003754,306.753113 268.965576,306.824921 261.468048,308.997803 
z"/>
<path fill="#DEB62A" opacity="1.000000" stroke="none" 
	d="
M186.157623,351.000000 
	C206.920670,351.000000 227.203629,350.994873 247.486603,351.003479 
	C252.849014,351.005768 254.736145,352.973572 255.021027,358.314545 
	C255.711212,371.254608 254.004623,373.258972 240.816345,373.068848 
	C222.033569,372.798035 203.243958,373.008575 184.457275,372.995331 
	C177.876694,372.990692 176.029541,371.108795 176.000839,364.491119 
	C175.995071,363.161102 176.107071,361.820923 175.982300,360.502686 
	C175.265594,352.930084 177.691895,350.214386 186.157623,351.000000 
z"/>
<path fill="#DEB62A" opacity="1.000000" stroke="none" 
	d="
M145.255035,222.246216 
	C147.418427,219.749695 149.227921,217.409302 151.261108,215.282806 
	C154.542099,211.851273 159.308594,211.223801 162.136627,213.669418 
	C164.752075,215.931213 164.799301,222.270187 161.997314,225.430847 
	C155.668533,232.569794 149.205872,239.589890 142.830719,246.688004 
	C140.973312,248.756073 139.356461,251.052414 137.403198,253.019562 
	C133.520798,256.929565 129.434937,257.064117 125.216728,253.738022 
	C120.815086,250.267288 116.255310,246.986603 111.993500,243.354355 
	C110.343849,241.948395 108.112389,240.770966 107.971428,238.007919 
	C107.796768,234.584534 107.688469,230.886337 111.286270,229.435760 
	C114.527176,228.129089 117.986313,228.726074 120.919930,231.337723 
	C129.518860,238.992966 129.606857,238.980774 137.485336,230.969315 
	C140.128708,228.281326 142.503799,225.329544 145.255035,222.246216 
z"/>
<path fill="#DEB62A" opacity="1.000000" stroke="none" 
	d="
M134.705750,377.087463 
	C127.688446,380.539215 124.631889,374.409882 120.372719,371.747864 
	C117.041878,369.666046 114.137215,366.907227 111.014282,364.486511 
	C107.826126,362.015289 106.782715,356.450775 109.003479,353.533630 
	C111.412415,350.369324 116.494530,349.865784 120.034431,352.605103 
	C122.494820,354.509003 124.777412,356.642273 127.145157,358.666412 
	C129.426529,360.616699 130.956970,360.590942 133.141388,357.902771 
	C138.943726,350.762421 145.173386,343.960785 151.397171,337.174927 
	C154.675003,333.601074 159.653580,333.309357 162.639816,336.130066 
	C164.735138,338.109283 164.724442,344.306000 162.292755,347.107208 
	C156.577347,353.691223 150.903397,360.336121 144.789917,366.539734 
	C141.444595,369.934357 139.267197,374.397552 134.705750,377.087463 
z"/>
<path fill="#DEB62A" opacity="1.000000" stroke="none" 
	d="
M159.291382,289.210815 
	C151.864166,297.611633 144.651337,305.718353 137.562622,313.932159 
	C134.763657,317.175385 130.592545,318.158630 127.130493,315.609009 
	C121.166428,311.216827 115.182861,306.807556 109.613510,301.940796 
	C106.708878,299.402649 107.168900,295.591858 109.132988,292.504120 
	C111.105385,289.403320 116.388611,288.922241 119.755531,291.339813 
	C122.012253,292.960236 124.145020,294.787598 126.153328,296.710266 
	C128.256042,298.723328 129.936035,299.151276 132.407318,296.970551 
	C137.771774,292.236816 141.910843,286.413422 146.793869,281.258636 
	C148.681870,279.265594 150.469330,277.048401 152.468033,275.131592 
	C155.491241,272.232300 158.991577,272.141266 162.213150,274.791931 
	C165.309799,277.339783 164.345169,280.879547 163.364166,283.913208 
	C162.751511,285.807770 160.868454,287.291504 159.291382,289.210815 
z"/>
<path fill="#DEB62A" opacity="1.000000" stroke="none" 
	d="
M149.771088,175.727646 
	C145.132416,180.699524 140.737457,185.410889 136.352875,190.131912 
	C133.312912,193.405167 130.160492,194.000092 126.466255,190.997925 
	C120.987396,186.545502 115.310226,182.337387 109.821869,177.896255 
	C107.445114,175.972992 106.971916,169.792908 109.321083,167.518860 
	C111.871216,165.050247 115.156708,163.835037 118.570358,166.255081 
	C120.568024,167.671310 122.491142,169.214447 124.317787,170.846039 
	C129.722290,175.673416 131.069031,175.605743 135.366043,170.124176 
	C140.659103,163.371994 146.367981,156.989075 152.521545,151.010376 
	C155.377655,148.235413 159.538025,148.109756 162.152313,150.639801 
	C164.602280,153.010818 164.837952,158.311996 162.575699,160.942139 
	C158.401611,165.794998 154.205933,170.629257 149.771088,175.727646 
z"/>
<path fill="#DEB62A" opacity="1.000000" stroke="none" 
	d="
M290.568115,51.117157 
	C296.394318,60.943745 292.597382,75.110825 285.790192,82.659584 
	C284.073608,84.563126 281.818695,83.815842 279.314209,83.965698 
	C285.836243,76.083870 290.212006,67.306160 289.091797,56.386452 
	C288.918823,54.700352 287.922729,52.452686 290.568115,51.117157 
z"/>
<path fill="#DEB62A" opacity="1.000000" stroke="none" 
	d="
M277.598083,84.942467 
	C279.919434,86.344215 281.705200,86.990295 278.266479,89.652931 
	C274.222565,92.784164 270.138458,95.148315 265.277191,96.441231 
	C262.481812,97.184708 260.365601,96.701851 259.096191,93.500244 
	C265.874176,92.215309 271.751465,89.037781 277.598083,84.942467 
z"/>
<path fill="#DEB62A" opacity="1.000000" stroke="none" 
	d="
M362.285675,60.907204 
	C360.888702,61.876411 359.298584,62.026588 357.740479,61.080013 
	C353.907654,58.751476 349.897583,56.857662 345.501831,55.822102 
	C343.467834,55.342930 342.737671,53.633598 342.083252,51.510628 
	C349.613190,52.387703 356.462433,55.226749 362.285675,60.907204 
z"/>
<path fill="#DEB62A" opacity="1.000000" stroke="none" 
	d="
M52.633003,61.059830 
	C56.057503,62.554314 56.586479,65.003296 54.579403,67.712097 
	C52.476665,70.549988 53.793526,76.184021 47.551983,75.996750 
	C47.349625,70.543159 50.193115,66.012779 52.633003,61.059830 
z"/>
<path fill="#DEB62A" opacity="1.000000" stroke="none" 
	d="
M157.597641,93.095184 
	C158.072342,96.303749 156.632263,97.467140 153.656998,96.344078 
	C150.422241,95.123070 147.206604,93.842651 144.033768,92.469887 
	C142.264313,91.704308 140.924255,90.509987 141.702362,87.880157 
	C146.800125,89.783775 151.591507,92.534859 157.597641,93.095184 
z"/>
<path fill="#DEB62A" opacity="1.000000" stroke="none" 
	d="
M187.633148,10.059654 
	C189.686813,11.179154 191.851837,12.443758 190.337631,15.032588 
	C188.731354,17.778776 188.933014,22.332695 183.550140,21.996889 
	C182.901215,17.496584 185.837570,14.120505 187.633148,10.059654 
z"/>
<path fill="#DEB62A" opacity="1.000000" stroke="none" 
	d="
M268.902649,41.570190 
	C264.346130,43.333054 259.383911,41.230042 257.083008,36.510002 
	C261.368225,36.826504 265.581573,37.844898 268.902649,41.570190 
z"/>
<path fill="#DEB62A" opacity="1.000000" stroke="none" 
	d="
M66.626091,51.095932 
	C66.522438,56.801579 65.031265,57.718140 58.272163,56.113396 
	C59.866074,52.816864 62.973274,51.774940 66.626091,51.095932 
z"/>
<path fill="#DEB62A" opacity="1.000000" stroke="none" 
	d="
M134.276703,79.899406 
	C132.880569,80.863762 131.457397,80.658592 130.633286,79.043640 
	C128.620239,75.098793 125.909706,71.350182 126.906876,66.234505 
	C129.057083,70.705338 130.498352,75.717613 134.276703,79.899406 
z"/>
<path fill="#DEB62A" opacity="1.000000" stroke="none" 
	d="
M254.380707,450.894806 
	C252.916855,446.056763 250.398590,441.610504 250.906433,436.233002 
	C253.549820,439.915070 253.292603,444.876678 255.872513,448.822021 
	C256.295685,449.469116 256.276520,450.837341 254.380707,450.894806 
z"/>
<path fill="#DEB62A" opacity="1.000000" stroke="none" 
	d="
M368.903992,74.612808 
	C365.587250,71.331734 363.526794,67.085579 362.737000,61.899643 
	C365.877502,65.281662 368.217957,69.371124 368.903992,74.612808 
z"/>
<path fill="#DEB62A" opacity="1.000000" stroke="none" 
	d="
M243.631836,36.095451 
	C243.909149,38.075092 243.800903,40.140511 241.083008,39.643162 
	C238.814301,39.228004 236.946564,38.151943 237.702789,34.884724 
	C239.569183,35.290657 241.220871,36.358150 243.631836,36.095451 
z"/>
<path fill="#DEB62A" opacity="1.000000" stroke="none" 
	d="
M232.903976,20.614044 
	C229.822388,17.774261 228.011459,13.939529 227.060791,9.272234 
	C230.374023,11.958040 232.262314,15.785468 232.903976,20.614044 
z"/>
<path fill="#DEB62A" opacity="1.000000" stroke="none" 
	d="
M141.288208,86.910454 
	C136.340408,88.044655 135.361450,87.205559 134.735947,80.907532 
	C136.117233,83.397827 139.255798,84.366615 141.288208,86.910454 
z"/>
<path fill="#DEB62A" opacity="1.000000" stroke="none" 
	d="
M61.126312,447.430115 
	C65.101555,445.363739 67.666893,448.553558 70.857384,450.533997 
	C67.313362,451.225922 64.498314,448.878235 61.126312,447.430115 
z"/>
<path fill="#DEB62A" opacity="1.000000" stroke="none" 
	d="
M332.973785,130.500443 
	C334.462341,128.953461 335.875214,129.077988 336.518341,130.903381 
	C337.306335,133.139954 335.802887,133.831711 333.526276,133.985306 
	C333.108978,132.963715 333.051270,131.927048 332.973785,130.500443 
z"/>
<path fill="#DEB62A" opacity="1.000000" stroke="none" 
	d="
M237.290283,33.916168 
	C234.107071,35.117474 233.063690,33.680237 233.907806,30.227564 
	C235.107010,31.192450 236.106186,32.433277 237.290283,33.916168 
z"/>
<path fill="#DEB62A" opacity="1.000000" stroke="none" 
	d="
M233.904297,25.645576 
	C232.164398,25.325203 231.830002,24.139444 232.675430,22.295952 
	C233.500671,23.016220 234.282898,23.962837 233.904297,25.645576 
z"/>
<path fill="#DEB62A" opacity="1.000000" stroke="none" 
	d="
M365.116486,294.421234 
	C365.959442,293.242157 366.922424,292.957367 367.886719,294.569702 
	C367.092163,294.798676 366.184387,294.764008 365.116486,294.421234 
z"/>
<path fill="#000" opacity="1.000000" stroke="none" 
	d="
M325.755554,438.257690 
	C320.285767,433.784973 314.841370,429.820343 309.914459,425.292633 
	C303.489838,419.388489 303.382660,412.258575 309.057159,405.786530 
	C313.357361,400.881927 321.820740,400.570862 327.619385,405.124268 
	C335.453827,411.276337 343.325623,417.382599 351.066528,423.650360 
	C352.765472,425.026001 353.022522,424.944122 354.589783,423.141541 
	C364.217072,412.069000 374.293427,401.388489 384.022400,390.402191 
	C390.032684,383.615173 395.798798,376.615479 402.256561,370.232391 
	C407.833191,364.720337 415.710358,364.420105 421.075836,369.569641 
	C426.147278,374.436981 426.523590,383.363831 421.733032,388.745972 
	C410.344940,401.540497 398.867065,414.255096 387.465607,427.037781 
	C379.799530,435.632568 372.117065,444.215424 364.604736,452.943695 
	C359.848297,458.469971 351.814789,459.251984 345.566315,454.090912 
	C339.142242,448.784821 332.537048,443.698090 325.755554,438.257690 
z"/>
<path fill="#000" opacity="1.000000" stroke="none" 
	d="
M198.091644,29.305336 
	C197.807083,20.133261 201.626846,16.020262 210.544495,16.066252 
	C217.248642,17.473618 218.546783,19.274139 218.899902,27.130142 
	C219.186783,33.512695 214.962631,37.930763 208.609268,38.004925 
	C205.906754,38.036472 203.672104,37.394245 202.271271,34.307030 
	C202.060547,33.905396 202.024185,33.975094 202.059052,33.956947 
	C200.254425,32.978596 198.113739,32.301266 198.091644,29.305336 
z"/>
<path fill="#DEB62A" opacity="1.000000" stroke="none" 
	d="
M202.057617,34.300018 
	C208.272781,37.382446 214.303406,36.114868 217.077667,30.748947 
	C220.065811,24.969393 217.931000,19.807142 211.121246,16.427120 
	C216.989548,14.855188 222.077606,20.284681 220.426147,26.201191 
	C220.303726,26.639759 220.131073,27.293657 220.343094,27.562313 
	C224.445908,32.761269 219.457504,35.142181 216.804871,37.691494 
	C213.545212,40.824177 209.165207,40.529945 205.018524,39.336014 
	C202.804886,38.698654 201.966263,36.930939 202.057617,34.300018 
z"/>
<path fill="#DEB62A" opacity="1.000000" stroke="none" 
	d="
M197.913330,29.227100 
	C199.353683,30.415321 200.594284,31.874361 201.964401,33.636101 
	C199.081543,33.989613 196.812225,33.307484 197.913330,29.227100 
z"/>
</svg>